<svg width="22" height="32" viewBox="0 0 22 32" fill="none" xmlns="http://www.w3.org/2000/svg">
<g clip-path="url(#clip0_2645_1304)">
<path d="M6.27539 21.6055H15.7247V26.3301H6.27539V21.6055Z" fill="#E74040"/>
<path d="M10.9997 3.65234C5.26833 3.65234 0.605469 8.31527 0.605469 14.0466V28.2206C0.605469 30.3047 2.30105 32.0003 4.3852 32.0003H17.6142C19.6984 32.0003 21.394 30.3047 21.394 28.2206V14.0466C21.394 8.31521 16.7312 3.65234 10.9997 3.65234ZM5.33013 12.1567H16.6693V14.0466H14.7795V15.9365H12.8896V14.0466H5.33013V12.1567ZM17.6142 28.2206H4.3852V19.7162H17.6142V28.2206Z" fill="#E74040"/>
<path d="M20.7042 1.83877L15.3411 0L14.5566 2.288C16.4519 2.86245 18.1545 3.88336 19.5422 5.22799L20.7042 1.83877Z" fill="#E74040"/>
<path d="M7.44253 2.288L6.65804 0L1.29492 1.83877L2.45694 5.22799C3.8446 3.88342 5.54731 2.86245 7.44253 2.288Z" fill="#E74040"/>
</g>
<defs>
<clipPath id="clip0_2645_1304">
<rect width="20.7885" height="32" fill="white" transform="translate(0.605469)"/>
</clipPath>
</defs>
</svg>
