<svg width="32" height="26" viewBox="0 0 32 26" fill="none" xmlns="http://www.w3.org/2000/svg">
<g clip-path="url(#clip0_2645_1317)">
<path d="M4.89589 0.775391C4.89503 0.775391 4.89406 0.775391 4.8932 0.775391C4.59054 0.775391 4.30588 0.893371 4.09093 1.10778C3.87361 1.32456 3.75391 1.61321 3.75391 1.9205V19.0912C3.75391 19.7209 4.26817 20.2344 4.90042 20.236C7.5658 20.2423 12.0314 20.7979 15.112 24.0217V6.05207C15.112 5.83863 15.0575 5.63811 14.9546 5.47219C12.4262 1.40031 7.56731 0.78164 4.89589 0.775391Z" fill="#E74040"/>
<path d="M28.2467 19.0913V1.9205C28.2467 1.61321 28.127 1.32456 27.9096 1.10778C27.6947 0.893371 27.4098 0.775391 27.1075 0.775391C27.1065 0.775391 27.1055 0.775391 27.1047 0.775391C24.4334 0.781748 19.5745 1.40042 17.046 5.4723C16.9431 5.63822 16.8887 5.83873 16.8887 6.05218V24.0217C19.9693 20.7979 24.4349 20.2423 27.1003 20.236C27.7324 20.2344 28.2467 19.7209 28.2467 19.0913Z" fill="#E74040"/>
<path d="M30.8554 4.73438H30.0252V19.0904C30.0252 20.698 28.7153 22.0089 27.1052 22.0129C24.8444 22.0183 21.1166 22.4604 18.4766 24.9591C23.0426 23.8411 27.8559 24.5679 30.5991 25.193C30.9416 25.271 31.2956 25.1904 31.57 24.9717C31.8434 24.7535 32.0003 24.4274 32.0003 24.0773V5.87927C32.0004 5.24799 31.4867 4.73438 30.8554 4.73438Z" fill="#E74040"/>
<path d="M1.97517 19.0904V4.73438H1.14489C0.513726 4.73438 0 5.24799 0 5.87927V24.077C0 24.4272 0.156876 24.7532 0.430331 24.9714C0.704541 25.19 1.05816 25.2709 1.40122 25.1927C4.14439 24.5674 8.95788 23.8408 13.5237 24.9588C10.8837 22.4602 7.15596 22.0182 4.89515 22.0128C3.28513 22.0089 1.97517 20.698 1.97517 19.0904Z" fill="#E74040"/>
</g>
<defs>
<clipPath id="clip0_2645_1317">
<rect width="32" height="24.4476" fill="white" transform="translate(0 0.775391)"/>
</clipPath>
</defs>
</svg>
