<svg width="292" height="35" viewBox="0 0 292 35" fill="none" xmlns="http://www.w3.org/2000/svg">
<path d="M147.738 1.09875L151.798 9.46273C152.081 10.0444 152.627 10.4475 153.258 10.5407L162.338 11.882C163.928 12.1171 164.563 14.1035 163.412 15.2433L156.842 21.7537C156.386 22.2064 156.177 22.8591 156.285 23.4981L157.836 32.6912C158.108 34.3012 156.445 35.5288 155.023 34.7692L146.902 30.4292C146.338 30.1276 145.662 30.1276 145.098 30.4292L136.977 34.7692C135.555 35.5295 133.892 34.3012 134.164 32.6912L135.715 23.4981C135.823 22.8591 135.614 22.2064 135.158 21.7537L128.588 15.2433C127.437 14.1028 128.072 12.1164 129.662 11.882L138.742 10.5407C139.373 10.4475 139.919 10.0444 140.202 9.46273L144.262 1.09875C144.972 -0.366249 147.027 -0.366249 147.738 1.09875Z" fill="#FFFFFF"/>
<path d="M0 17C0 15.8954 0.895431 15 2 15H110C111.105 15 112 15.8954 112 17V17C112 18.1046 111.105 19 110 19H2C0.89543 19 0 18.1046 0 17V17Z" fill="#FFFFFF"/>
<path d="M180 17C180 15.8954 180.895 15 182 15H290C291.105 15 292 15.8954 292 17V17C292 18.1046 291.105 19 290 19H182C180.895 19 180 18.1046 180 17V17Z" fill="#FFFFFF"/>
</svg>
